# xmcd
#
# Track frame offsets: 
#        150
#        12026
#        37274
#        54474
#        71659
#        91040
#        110196
#        130464
#        155224
#        172876
#        211841
#
# Disc length: 3077 seconds
#
# Revision: 1
# Processed by: cddbd v1.5.2PL0 Copyright (c) Steve Scherf et al.
# Submitted via: ExactAudioCopy v0.99pb4
#
DISCID=980c030b
DTITLE=Stormwarrior - Northern Rage
DYEAR=2004
DGENRE=Speed Metal
TTITLE0=And The Northewinde Bloweth
TTITLE1=Heroic Deathe
TTITLE2=Valhalla
TTITLE3=Thy Laste Fyre
TTITLE4=Welcome Thy Rite
TTITLE5=Odinn's Warriors
TTITLE6=Bloode Eagle
TTITLE7=Sigrblot
TTITLE8=To Foreign Shores
TTITLE9=Lindisfarne
TTITLE10=Turn The Cross Upside Down (Oz Cover)
EXTD=YEAR: 2004
EXTT0=
EXTT1=
EXTT2=
EXTT3=
EXTT4=
EXTT5=
EXTT6=
EXTT7=
EXTT8=
EXTT9=
EXTT10=
PLAYORDER=
